<?xml version="1.0" standalone="no"?>
<!DOCTYPE svg PUBLIC "-//W3C//DTD SVG 20010904//EN"
 "http://www.w3.org/TR/2001/REC-SVG-20010904/DTD/svg10.dtd">
<svg version="1.0" xmlns="http://www.w3.org/2000/svg"
 width="300.000000pt" height="63.000000pt" viewBox="0 0 300.000000 63.000000"
 preserveAspectRatio="xMidYMid meet">

<g transform="translate(0.000000,63.000000) scale(0.100000,-0.100000)"
fill="#000000" stroke="none">
<path d="M0 315 l0 -315 1500 0 1500 0 0 315 0 315 -1500 0 -1500 0 0 -315z
m1940 82 c0 -129 -4 -187 -12 -195 -8 -8 -47 -12 -110 -12 -148 0 -178 21
-178 127 0 92 43 133 140 133 l50 0 0 65 0 65 55 0 55 0 0 -183z m130 168 c18
-22 4 -64 -25 -71 -40 -10 -69 23 -54 64 10 26 59 31 79 7z m-1652 -9 c38 -20
65 -53 59 -71 -8 -19 -43 -20 -54 -1 -12 20 -49 37 -67 30 -22 -8 -30 -42 -15
-60 7 -9 36 -27 63 -41 64 -32 85 -58 86 -106 0 -78 -52 -127 -136 -127 -70 0
-140 53 -113 86 16 19 29 18 53 -5 34 -31 81 -32 91 -1 9 27 -8 46 -66 75 -68
35 -92 69 -86 123 10 89 105 139 185 98z m522 -16 c0 -28 -3 -30 -35 -30 -24
0 -37 -6 -45 -19 -19 -37 -12 -51 24 -51 19 0 36 -6 39 -12 8 -25 -6 -38 -39
-38 l-34 0 0 -100 0 -100 -55 0 -55 0 0 100 c0 82 -3 100 -15 100 -9 0 -15 9
-15 25 0 14 6 25 13 25 8 0 19 17 25 38 7 21 20 46 30 55 20 18 79 34 130 36
29 1 32 -2 32 -29z m593 -92 c39 -15 58 -59 64 -148 6 -86 -6 -110 -56 -110
-42 0 -51 17 -51 95 0 38 -3 80 -6 92 -7 25 -34 37 -64 28 -18 -6 -20 -15 -20
-111 l0 -104 -55 0 -55 0 0 135 0 136 70 -2 c39 -1 74 1 77 5 8 8 55 0 96 -16z
m837 -2 c40 -18 60 -70 60 -156 0 -82 -9 -100 -48 -100 -54 0 -62 14 -62 108
0 93 -8 112 -45 112 -38 0 -45 -19 -45 -123 l0 -98 -52 3 -53 3 -3 133 -3 133
75 -2 c42 -2 78 0 82 4 8 8 60 -2 94 -17z m-1323 2 c4 -7 10 -53 13 -102 6
-101 18 -119 64 -98 25 11 26 14 26 112 l0 100 50 0 50 0 0 -135 0 -135 -120
2 c-116 3 -120 4 -147 31 -26 25 -28 35 -32 117 -2 61 1 95 9 105 15 18 76 20
87 3z m1023 -8 c18 -18 20 -33 20 -135 l0 -115 -55 0 -55 0 0 119 c0 113 1
121 22 135 30 21 44 20 68 -4z m698 -150 c2 -101 -1 -164 -9 -183 -18 -43 -56
-57 -159 -57 -89 0 -90 0 -90 25 0 24 2 25 70 25 75 0 90 10 90 64 0 25 -2 26
-65 26 -57 0 -68 3 -97 29 -28 25 -32 35 -36 92 -3 55 -1 68 18 92 33 41 53
46 170 44 l105 -2 3 -155z m-2068 -100 l0 -30 -95 0 -95 0 0 30 0 30 95 0 95
0 0 -30z"/>
<path d="M1859 555 c-3 -2 -2 -31 1 -64 l6 -60 -78 -7 c-63 -5 -81 -11 -99
-30 -22 -23 -22 -24 -4 -44 16 -18 17 -23 4 -46 -13 -25 -12 -28 21 -55 18
-16 35 -27 37 -26 2 2 -6 43 -16 90 l-19 87 23 0 c12 0 43 3 69 6 l46 7 0
-102 0 -101 28 6 c37 9 37 8 17 59 -16 44 -16 47 1 66 17 18 16 20 -5 43 l-22
23 26 17 c25 17 26 18 10 37 -16 17 -16 20 -1 43 24 38 21 56 -12 56 -16 0
-31 -2 -33 -5z"/>
<path d="M1772 384 c-17 -12 -22 -25 -22 -60 0 -61 14 -84 50 -84 l30 0 0 80
c0 70 -2 80 -18 80 -10 0 -28 -7 -40 -16z"/>
<path d="M2027 540 c3 -11 9 -20 14 -20 5 0 9 9 9 20 0 11 -6 20 -14 20 -9 0
-12 -7 -9 -20z"/>
<path d="M310 525 c0 -15 2 -17 9 -6 9 13 53 12 111 -3 16 -5 12 -1 -10 10
-19 9 -52 17 -72 18 -32 1 -38 -2 -38 -19z"/>
<path d="M266 495 c-3 -9 -6 -30 -6 -46 0 -22 5 -29 20 -29 11 0 20 -3 20 -7
0 -5 15 -25 33 -45 24 -27 43 -38 74 -43 l43 -7 -29 31 c-15 16 -40 33 -54 36
-15 4 -30 18 -37 35 -7 16 -22 43 -35 60 -18 25 -24 28 -29 15z"/>
<path d="M403 248 l-42 -42 -36 17 c-24 12 -34 13 -32 4 6 -34 86 -38 117 -7
12 12 25 18 30 15 6 -4 10 7 10 24 0 17 -1 31 -3 31 -1 0 -21 -19 -44 -42z"/>
<path d="M787 477 l-49 -62 26 -3 c30 -4 30 -3 11 -66 -14 -46 -14 -51 6 -82
23 -38 34 -44 24 -15 -3 11 0 21 9 24 13 5 13 13 1 57 l-14 51 42 19 c36 16
38 19 17 19 -14 1 -31 5 -39 10 -21 14 4 68 40 87 36 18 36 24 2 24 -22 -1
-38 -14 -76 -63z"/>
<path d="M1342 419 l21 -17 -22 -12 c-22 -11 -22 -12 -5 -31 17 -19 17 -22 0
-69 -19 -53 -17 -65 13 -73 16 -4 19 3 25 62 3 36 6 83 6 104 l0 38 68 -3 67
-3 -4 -97 c-2 -54 -1 -98 2 -98 3 0 17 4 32 10 25 10 25 10 10 41 -15 28 -15
33 0 55 19 30 14 52 -21 85 -23 22 -34 24 -120 24 -89 0 -93 -1 -72 -16z"/>
<path d="M2177 418 c13 -15 12 -18 -7 -28 l-22 -12 20 -20 21 -21 -20 -50
c-21 -52 -18 -63 16 -69 19 -3 20 3 23 100 l3 102 71 0 70 0 -4 -100 c-4 -97
-3 -100 17 -94 33 10 38 20 22 50 -14 26 -13 31 4 55 18 26 18 26 -11 65 l-29
39 -95 0 c-88 0 -93 -1 -79 -17z"/>
<path d="M1176 416 c-3 -11 -6 -58 -6 -103 l0 -83 -72 0 -71 0 6 101 c6 100 6
100 -16 93 -35 -10 -40 -20 -24 -50 14 -26 13 -31 -4 -55 -18 -26 -18 -26 11
-65 l29 -39 95 0 c88 0 93 1 79 17 -13 15 -12 18 7 28 l22 12 -20 20 c-20 21
-20 21 -1 70 21 53 20 63 -10 71 -14 3 -21 -2 -25 -17z"/>
<path d="M2025 400 c5 -14 2 -25 -6 -30 -10 -7 -10 -11 1 -25 10 -12 10 -19 2
-27 -9 -9 -9 -15 0 -25 8 -10 7 -18 -6 -32 -17 -19 -12 -51 8 -51 35 1 40 25
33 155 -2 39 -7 51 -21 53 -14 3 -17 0 -11 -18z"/>
<path d="M2680 324 l0 -97 -62 7 c-34 3 -64 8 -66 11 -3 3 2 39 12 81 9 42 14
79 12 82 -3 2 -21 -6 -41 -18 -35 -21 -35 -23 -20 -46 19 -29 19 -43 0 -64
-15 -16 -13 -20 15 -44 27 -23 41 -26 101 -26 62 0 70 -2 66 -17 -12 -43 -17
-112 -9 -117 5 -3 20 6 33 20 l24 25 -24 18 -24 18 27 18 27 18 -27 22 -28 22
22 14 c26 16 27 26 6 50 -14 16 -14 21 5 58 21 40 21 40 2 51 -46 24 -51 16
-51 -86z"/>
<path d="M2590 381 c-5 -11 -10 -38 -10 -60 0 -48 29 -84 63 -79 20 3 22 9 25
81 l3 77 -35 0 c-25 0 -38 -6 -46 -19z"/>
<path d="M2544 74 c-10 -8 -13 -12 -5 -8 7 3 35 6 62 5 27 0 49 4 49 9 0 16
-84 11 -106 -6z"/>
<path d="M553 192 c-2 -19 13 -20 77 -5 25 6 25 6 -5 13 -53 13 -71 11 -72 -8z"/>
</g>
</svg>
