<?xml version="1.0" standalone="no"?>
<!DOCTYPE svg PUBLIC "-//W3C//DTD SVG 20010904//EN"
 "http://www.w3.org/TR/2001/REC-SVG-20010904/DTD/svg10.dtd">
<svg version="1.0" xmlns="http://www.w3.org/2000/svg"
 width="300.000000pt" height="61.000000pt" viewBox="0 0 300.000000 61.000000"
 preserveAspectRatio="xMidYMid meet">

<g transform="translate(0.000000,61.000000) scale(0.100000,-0.100000)"
fill="#000000" stroke="none">
<path d="M1058 495 c-35 -20 -47 -43 -41 -78 4 -20 1 -27 -10 -27 -25 0 -32
-68 -10 -92 10 -11 23 -45 28 -76 11 -60 22 -70 71 -58 19 5 24 13 24 40 0 28
4 35 23 38 19 3 22 8 19 43 -2 22 -8 44 -13 49 -5 6 -9 17 -9 26 0 12 7 16 28
13 43 -7 66 17 58 59 -3 19 -15 43 -26 53 -27 24 -107 30 -142 10z m120 -17
c6 -6 12 -23 12 -39 0 -26 -3 -28 -42 -31 -36 -3 -43 -7 -49 -32 -6 -23 -3
-32 17 -51 27 -25 24 -50 -7 -58 -16 -4 -20 -12 -17 -39 3 -29 0 -33 -22 -33
-23 0 -25 4 -32 64 -5 42 -13 67 -24 76 -19 13 -11 35 12 35 10 0 14 12 14 43
0 43 15 67 50 80 19 7 71 -2 88 -15z"/>
<path d="M1984 476 c-9 -24 0 -58 18 -70 24 -15 61 19 52 48 -11 36 -59 51
-70 22z m44 -18 c-6 -18 -28 -21 -28 -4 0 9 7 16 16 16 9 0 14 -5 12 -12z"/>
<path d="M2419 447 c-19 -12 -44 -41 -55 -64 l-22 -42 -5 28 c-9 45 -60 75
-127 76 -30 0 -68 -7 -85 -15 -25 -13 -29 -20 -27 -47 2 -17 -1 -34 -7 -38 -6
-3 -11 -1 -11 6 0 21 -34 38 -77 39 l-43 0 0 -89 c0 -102 7 -114 73 -115 l42
-1 6 65 c3 36 6 54 7 40 3 -43 29 -70 67 -70 28 0 35 5 46 33 l13 32 3 -32 c4
-33 5 -33 58 -33 60 0 75 13 75 67 l1 28 14 -33 c8 -18 28 -40 45 -50 41 -23
35 -46 -13 -50 -34 -3 -37 -6 -37 -32 0 -70 136 -66 168 5 18 39 16 229 -3
265 -14 28 -42 50 -63 50 -5 0 -24 -10 -43 -23z m-162 -23 c29 -8 53 -61 53
-118 0 -45 -1 -46 -33 -46 -24 0 -35 6 -42 23 -6 13 -21 23 -36 25 -22 3 -29
-2 -37 -27 -21 -59 -52 -29 -52 49 0 56 12 83 40 93 21 7 81 8 107 1z m237
-16 c12 -17 16 -48 16 -124 0 -96 -2 -104 -26 -134 -22 -26 -33 -31 -63 -28
-25 2 -37 8 -39 21 -2 11 3 17 16 17 43 0 52 10 52 61 0 44 -2 49 -22 49 -55
0 -75 67 -38 128 16 26 26 32 54 32 25 0 39 -7 50 -22z m-470 -34 c13 -5 16
-22 16 -80 0 -72 -1 -74 -24 -74 -14 0 -27 4 -30 9 -13 20 -17 98 -7 124 11
28 18 31 45 21z m43 -126 c-2 -18 -4 -4 -4 32 0 36 2 50 4 33 2 -18 2 -48 0
-65z m-30 -44 c-3 -3 -12 -4 -19 -1 -8 3 -5 6 6 6 11 1 17 -2 13 -5z"/>
<path d="M2422 388 c-18 -18 -15 -67 4 -75 25 -9 58 30 50 61 -7 28 -33 35
-54 14z m8 -35 c-11 -17 -11 -17 -6 0 3 10 6 24 7 30 0 9 2 9 5 0 3 -7 0 -20
-6 -30z"/>
<path d="M546 434 c-33 -13 -64 -30 -68 -37 -13 -20 -9 -66 7 -97 9 -17 13
-31 10 -31 -3 -1 -9 -2 -14 -3 -5 0 -12 -3 -14 -6 -6 -6 18 -119 27 -127 11
-11 149 39 172 62 30 30 31 75 4 100 -25 23 -25 41 -1 55 17 9 18 15 9 47 -19
72 -37 77 -132 37z m86 -19 c10 -21 8 -29 -10 -48 -29 -31 -28 -37 15 -73 45
-38 40 -58 -19 -84 -82 -36 -95 -36 -113 0 -9 18 -15 33 -13 35 2 1 14 8 27
15 24 12 24 12 4 29 -29 23 -45 58 -38 82 7 20 94 69 123 69 7 0 18 -11 24
-25z m-22 -235 c-8 -5 -19 -10 -25 -10 -5 0 -3 5 5 10 8 5 20 10 25 10 6 0 3
-5 -5 -10z"/>
<path d="M1839 453 c-1 -5 0 -25 1 -45 1 -35 -1 -38 -24 -38 -26 0 -50 -18
-73 -56 -11 -17 -12 -16 -12 14 -1 44 -23 85 -57 102 -37 20 -121 19 -163 -3
-24 -12 -37 -14 -41 -6 -4 6 -24 9 -46 7 -37 -3 -39 -5 -47 -45 -5 -26 -16
-47 -27 -53 -26 -14 -33 1 -24 55 6 43 5 45 -17 45 -60 0 -66 -7 -73 -80 -9
-90 -2 -113 40 -133 83 -40 170 -6 191 73 l11 45 1 -41 c2 -76 74 -104 108
-41 l18 32 3 -32 c3 -33 3 -33 59 -33 46 0 56 3 60 20 7 27 17 25 31 -5 15
-33 56 -48 112 -40 85 12 80 3 80 129 0 74 -4 116 -12 124 -13 13 -97 17 -99
5z m69 -109 c3 -98 2 -102 -20 -108 -42 -11 -91 -6 -110 11 -38 34 -11 100 45
105 30 3 32 5 30 38 -3 49 3 62 29 58 22 -3 23 -8 26 -104z m-242 63 c23 -20
28 -34 32 -85 l4 -62 -33 0 c-26 0 -37 6 -44 23 -6 13 -21 23 -36 25 -22 3
-29 -2 -37 -27 -23 -64 -54 -26 -50 60 3 56 6 65 28 76 42 21 105 16 136 -10z
m-376 -42 c0 -35 5 -47 21 -55 30 -16 65 10 76 57 6 28 14 39 31 41 20 3 22
-1 22 -48 0 -94 -35 -129 -121 -117 -56 7 -69 22 -69 76 0 60 9 91 26 91 10 0
14 -13 14 -45z m200 19 c0 -8 -5 -12 -10 -9 -6 4 -8 11 -5 16 9 14 15 11 15
-7z m447 -146 c-3 -7 -5 -2 -5 12 0 14 2 19 5 13 2 -7 2 -19 0 -25z m-564 -15
c-13 -2 -35 -2 -50 0 -16 2 -5 4 22 4 28 0 40 -2 28 -4z m514 -9 c-3 -3 -12
-4 -19 -1 -8 3 -5 6 6 6 11 1 17 -2 13 -5z"/>
<path d="M1808 313 c-26 -32 -1 -71 37 -57 20 8 29 42 15 59 -16 20 -34 19
-52 -2z m42 -22 c0 -6 -4 -13 -10 -16 -5 -3 -10 1 -10 9 0 9 5 16 10 16 6 0
10 -4 10 -9z"/>
<path d="M713 273 c-7 -2 -13 -22 -13 -44 0 -47 1 -47 155 -51 l110 -3 3 44
c2 28 -1 47 -10 52 -14 9 -224 11 -245 2z m205 -30 c3 -23 1 -23 -98 -23 -91
0 -101 2 -98 18 3 18 70 30 153 28 33 -1 41 -5 43 -23z m42 -20 c0 -7 -4 -13
-10 -13 -5 0 -10 12 -10 28 0 21 2 24 10 12 5 -8 10 -21 10 -27z m-35 -23 c4
-6 -24 -9 -77 -8 l-83 2 75 6 c41 4 76 7 77 8 1 1 5 -2 8 -8z"/>
</g>
</svg>
