<?xml version="1.0" standalone="no"?>
<!DOCTYPE svg PUBLIC "-//W3C//DTD SVG 20010904//EN"
 "http://www.w3.org/TR/2001/REC-SVG-20010904/DTD/svg10.dtd">
<svg version="1.0" xmlns="http://www.w3.org/2000/svg"
 width="300.000000pt" height="63.000000pt" viewBox="0 0 300.000000 63.000000"
 preserveAspectRatio="xMidYMid meet">

<g transform="translate(0.000000,63.000000) scale(0.100000,-0.100000)"
fill="#000000" stroke="none">
<path d="M1810 501 l0 -58 -56 -7 c-98 -11 -123 -35 -124 -114 0 -66 12 -90
55 -108 43 -17 186 -19 203 -2 8 8 12 63 12 180 l0 168 -45 0 -45 0 0 -59z
m70 16 c0 -13 -6 -29 -12 -35 -10 -10 -10 -17 0 -33 11 -17 10 -23 -8 -37
l-22 -17 21 -19 c20 -18 20 -20 5 -38 -16 -17 -16 -21 -1 -60 9 -23 16 -43 14
-44 -1 -1 -14 -5 -30 -9 l-27 -7 0 91 0 91 -27 -1 c-24 -2 -25 -2 -5 -6 20 -4
22 -10 22 -79 l0 -75 -32 3 c-23 2 -37 11 -46 28 -13 25 -13 24 -7 -8 8 -38 0
-40 -39 -7 -27 22 -29 26 -18 51 11 22 10 30 -5 46 -16 18 -16 20 12 43 25 20
42 24 93 25 l63 0 -7 60 -7 60 32 0 c26 0 31 -4 31 -23z"/>
<path d="M1701 373 c1 -10 5 -31 9 -48 7 -28 8 -28 9 -5 0 14 8 36 17 48 14
21 14 22 -10 22 -19 0 -26 -5 -25 -17z"/>
<path d="M1960 546 c-6 -8 -10 -25 -8 -38 4 -30 46 -38 65 -12 17 23 16 29 -3
48 -19 20 -38 20 -54 2z m50 -26 c0 -11 -6 -20 -14 -20 -7 0 -16 9 -19 20 -4
15 0 20 14 20 12 0 19 -7 19 -20z"/>
<path d="M392 530 c-30 -13 -55 -74 -48 -115 7 -37 24 -54 83 -84 49 -24 66
-49 52 -74 -13 -23 -52 -22 -74 3 -30 33 -71 21 -58 -18 14 -39 137 -57 182
-26 36 25 54 79 41 118 -8 25 -25 41 -73 67 -49 27 -63 40 -65 61 -5 38 39 50
72 19 28 -26 56 -27 56 -3 0 32 -36 55 -93 59 -28 1 -62 -2 -75 -7z m123 -19
c17 -8 25 -15 18 -18 -7 -2 -21 0 -32 6 -26 15 -64 14 -79 -1 -9 -9 -12 -8
-12 8 0 17 6 20 38 19 20 -1 51 -7 67 -14z m-121 -33 c22 -49 56 -94 71 -97
11 -2 32 -17 47 -33 l29 -31 -43 6 c-34 5 -49 14 -76 46 -18 23 -40 41 -48 41
-15 0 -18 20 -8 58 7 24 19 29 28 10z m146 -213 c0 -15 -6 -25 -14 -25 -8 0
-16 -7 -20 -15 -4 -10 -19 -15 -48 -15 -46 0 -61 7 -66 28 -2 9 6 9 28 -3 30
-16 32 -15 72 20 23 19 43 35 45 35 2 0 3 -11 3 -25z"/>
<path d="M865 526 c-29 -13 -55 -51 -55 -81 0 -8 -7 -15 -15 -15 -9 0 -15 -9
-15 -25 0 -16 6 -25 15 -25 12 0 15 -17 15 -90 l0 -90 45 0 45 0 0 89 0 90 33
3 c24 2 32 8 32 23 0 15 -8 21 -32 23 -21 2 -33 9 -33 18 0 21 37 54 60 54 13
0 20 7 20 20 0 17 -7 20 -42 20 -24 -1 -57 -7 -73 -14z m80 -5 c3 -5 -3 -12
-14 -16 -23 -7 -47 -33 -55 -61 -5 -18 -1 -23 26 -28 l33 -8 -32 -16 c-34 -16
-40 -36 -24 -77 5 -11 5 -24 1 -30 -5 -5 -10 -21 -12 -35 -3 -24 -4 -24 -25
11 -22 34 -22 39 -9 83 15 48 15 48 -23 58 -20 6 84 128 109 128 10 0 21 -4
25 -9z"/>
<path d="M1012 438 c-17 -17 -15 -141 2 -182 18 -43 52 -54 169 -55 l87 0 0
124 0 125 -45 0 -44 0 -3 -97 -3 -98 -30 -3 c-42 -5 -55 19 -55 105 0 61 -3
74 -19 83 -26 13 -44 13 -59 -2z m222 -18 l26 -9 -20 -47 c-20 -45 -20 -48 -3
-66 17 -19 17 -20 -1 -34 -14 -10 -16 -17 -8 -26 8 -10 -7 -14 -73 -16 l-84
-2 -27 35 c-24 32 -25 38 -14 65 10 24 10 37 1 57 -14 30 -14 29 23 39 l29 7
-7 -92 -8 -91 60 0 59 0 7 46 c3 26 6 69 6 95 0 27 2 49 4 49 3 0 16 -4 30
-10z"/>
<path d="M1310 324 l0 -124 45 0 45 0 0 89 c0 82 2 91 22 105 l22 16 -27 0
c-27 0 -27 -1 -27 -64 0 -35 -3 -78 -6 -95 -6 -26 -10 -30 -28 -25 -30 9 -30
8 -12 59 14 42 14 49 0 70 -14 22 -14 24 6 30 20 6 21 8 4 26 -17 19 -15 19
68 19 86 0 86 0 117 -35 30 -34 30 -37 16 -65 -12 -23 -13 -34 -3 -55 10 -22
9 -28 -3 -36 -34 -21 -39 -11 -39 81 l0 90 -32 0 c-32 0 -32 0 -10 -16 20 -13
22 -24 22 -94 0 -70 2 -81 21 -90 11 -7 32 -9 45 -6 23 6 24 10 24 86 0 43 -4
90 -10 105 -14 38 -61 53 -167 53 l-93 1 0 -125z"/>
<path d="M2070 325 l0 -125 45 0 45 0 0 89 c0 82 2 91 22 105 l22 16 -27 0
-27 0 0 -96 0 -96 -27 7 c-16 4 -29 8 -31 10 -2 2 5 26 14 53 18 49 18 52 0
70 -17 19 -17 20 4 27 20 6 21 8 4 26 -17 19 -15 19 72 19 l89 0 29 -36 c28
-35 28 -37 12 -65 -13 -23 -14 -32 -4 -54 10 -22 9 -28 -3 -36 -34 -21 -39
-11 -39 81 l0 90 -32 0 c-32 0 -32 0 -10 -16 19 -13 22 -24 22 -89 0 -92 21
-119 74 -99 13 5 16 23 16 93 0 131 -21 149 -182 150 l-88 0 0 -124z"/>
<path d="M1952 428 c-8 -8 -12 -49 -12 -120 l0 -108 45 0 45 0 0 108 c0 113
-6 132 -45 132 -12 0 -26 -5 -33 -12z m57 -55 c0 -21 3 -54 6 -74 8 -44 -8
-79 -35 -79 -22 0 -27 29 -8 48 8 8 8 15 0 25 -9 10 -9 16 0 25 8 8 8 15 -1
26 -8 10 -9 16 -1 21 6 4 8 15 5 26 -5 14 -1 19 14 19 17 0 20 -6 20 -37z"/>
<path d="M2460 430 c-50 -12 -70 -42 -70 -107 0 -30 5 -63 11 -75 14 -27 69
-48 124 -48 43 0 45 -1 45 -29 0 -17 -5 -33 -11 -37 -6 -3 -9 -15 -6 -25 4
-16 -3 -19 -52 -22 -49 -3 -47 -3 21 -5 68 -2 80 1 105 22 28 24 28 25 31 167
3 128 2 145 -14 156 -20 14 -128 16 -184 3z m180 -44 c0 -6 -7 -22 -16 -35
-16 -22 -16 -25 0 -52 16 -27 16 -28 -5 -39 l-21 -12 22 -23 21 -23 -22 -16
-22 -15 22 -18 23 -18 -21 -19 c-33 -30 -50 -15 -40 36 13 70 15 68 -55 68
-54 0 -70 4 -93 24 -27 23 -27 25 -10 44 17 19 17 23 3 50 -15 29 -15 29 26
52 l40 22 -7 -33 c-6 -33 -6 -33 7 -9 9 17 23 26 46 28 l32 3 0 -76 0 -76 -37
3 c-33 3 -37 7 -48 43 l-11 40 -8 -39 c-4 -21 -5 -41 -2 -44 3 -3 31 -7 61
-10 l55 -4 0 90 0 91 30 -10 c17 -6 30 -16 30 -23z"/>
<path d="M600 205 c0 -25 1 -25 86 -25 83 0 85 1 82 23 -3 20 -9 22 -85 25
-83 3 -83 3 -83 -23z m120 6 c0 -12 -26 -21 -61 -21 -19 0 -29 5 -29 15 0 11
12 15 45 15 25 0 45 -4 45 -9z"/>
<path d="M2420 100 c0 -23 15 -27 23 -6 4 9 24 16 49 19 38 3 36 4 -14 5 -52
2 -58 0 -58 -18z"/>
</g>
</svg>
